# xmcd
#
# Track frame offsets: 
#        150
#        9598
#        27026
#        73601
#        98209
#        124832
#        139598
#        157994
#        184491
#        225741
#        261371
#
# Disc length: 4340 seconds
#
# Revision: 0
# Processed by: cddbd v1.5.2PL0 Copyright (c) Steve Scherf et al.
# Submitted via: ExactAudioCopy v0.99pb5
#
DISCID=9110f20b
DTITLE=Limboski - Tribute to Georgie Buck
DYEAR=2011
DGENRE=Blues
TTITLE0=01.Ship of hunters
TTITLE1=02.There ain`t no heaven on the country road
TTITLE2=03.Keep your lamp
TTITLE3=04.Canned heat blues
TTITLE4=05.Georgie Buck`s  Bahama beach
TTITLE5=06.Pallet on your floor
TTITLE6=07.Washinghton D.C.
TTITLE7=08.Betty and Dupree
TTITLE8=09.Take me to the river
TTITLE9=10.Preaching blues
TTITLE10=11.George Buck`s  bardo
EXTD=
EXTT0=
EXTT1=
EXTT2=
EXTT3=
EXTT4=
EXTT5=
EXTT6=
EXTT7=
EXTT8=
EXTT9=
EXTT10=
PLAYORDER=
